<mxfile host="app.diagrams.net" modified="2022-08-09T09:15:59.637Z" agent="5.0 (Windows)" etag="MjIFql951SXptiBJEnUP" version="20.2.3" type="github">
  <diagram id="sMP_dOJLOKyjLoVJ6SQn" name="Page-1">
    <mxGraphModel dx="1038" dy="564" grid="1" gridSize="10" guides="1" tooltips="1" connect="1" arrows="1" fold="1" page="1" pageScale="1" pageWidth="827" pageHeight="1169" math="0" shadow="0">
      <root>
        <mxCell id="0" />
        <mxCell id="1" parent="0" />
        <mxCell id="vuxg8Bi198hUJe4XiMdr-7" value="" style="shape=partialRectangle;whiteSpace=wrap;html=1;top=0;left=0;fillColor=none;direction=east;flipH=0;flipV=1;" vertex="1" parent="1">
          <mxGeometry x="474" y="200" width="120" height="60" as="geometry" />
        </mxCell>
        <mxCell id="vuxg8Bi198hUJe4XiMdr-1" value="&lt;div&gt;Barre de recherche principale&lt;/div&gt;" style="rounded=0;whiteSpace=wrap;html=1;direction=west;fillColor=#dae8fc;strokeColor=#6c8ebf;" vertex="1" parent="1">
          <mxGeometry x="354" y="40" width="120" height="60" as="geometry" />
        </mxCell>
        <mxCell id="vuxg8Bi198hUJe4XiMdr-2" value="" style="endArrow=classic;html=1;rounded=0;" edge="1" parent="1">
          <mxGeometry width="50" height="50" relative="1" as="geometry">
            <mxPoint x="413" y="100" as="sourcePoint" />
            <mxPoint x="413" y="150" as="targetPoint" />
          </mxGeometry>
        </mxCell>
        <mxCell id="vuxg8Bi198hUJe4XiMdr-3" value="&lt;div&gt;Valeur d&#39;input : 3 caractÃ¨res&lt;/div&gt;" style="ellipse;whiteSpace=wrap;html=1;fillColor=#fff2cc;strokeColor=#d6b656;" vertex="1" parent="1">
          <mxGeometry x="354" y="150" width="120" height="80" as="geometry" />
        </mxCell>
        <mxCell id="vuxg8Bi198hUJe4XiMdr-5" value="" style="shape=partialRectangle;whiteSpace=wrap;html=1;bottom=0;right=0;fillColor=none;" vertex="1" parent="1">
          <mxGeometry x="240" y="200" width="120" height="60" as="geometry" />
        </mxCell>
      </root>
    </mxGraphModel>
  </diagram>
</mxfile>
